<?xml version="1.0" encoding="UTF-8"?><svg id="a" xmlns="http://www.w3.org/2000/svg" viewBox="0 0 566.93 566.93"><defs><style>.b{fill:#231f20;}.c,.d,.e,.f,.g,.h{stroke:#231f20;stroke-miterlimit:10;}.c,.f{stroke-width:2px;}.c,.h{fill:#fff;}.d{fill:#97d9ea;}.e{fill:#fff596;}.f,.g{fill:none;}.h{stroke-width:1.5px;}</style></defs><rect class="c" x="185.12" y="161.05" width="206.73" height="196.1" rx="37.84" ry="37.84"/><g><path class="b" d="M220.96,178.31c-.6,1.54-1.14,3-1.63,4.37-.49,1.37-.79,2.2-.89,2.5h-1.66c-.06-.18-.23-.69-.53-1.51-.29-.82-.67-1.84-1.13-3.06h-.04c-.43,1.08-.81,2.07-1.15,2.96-.34,.9-.54,1.43-.6,1.6h-1.67c-.06-.17-.31-.88-.75-2.14-.44-1.25-1.02-2.82-1.74-4.69l1.89-.53c.04,.14,.21,.67,.51,1.59,.3,.92,.67,2.01,1.1,3.26h.04c.41-1.08,.78-2.07,1.1-2.98s.5-1.42,.54-1.53h1.57c.05,.17,.23,.7,.54,1.58,.31,.88,.65,1.86,1.02,2.93h.04c.44-1.24,.81-2.31,1.1-3.21,.3-.9,.47-1.44,.52-1.64l1.8,.48Z"/><path class="b" d="M229.38,184.74l-1.87,.59c-.04-.12-.14-.38-.29-.78-.16-.4-.34-.85-.56-1.36h-2.91c-.22,.51-.41,.97-.57,1.37-.16,.4-.25,.66-.29,.77l-1.76-.56c.1-.21,.5-1.07,1.19-2.56s1.35-2.92,1.98-4.29h1.94c.66,1.44,1.33,2.91,2.02,4.41s1.06,2.3,1.11,2.41Zm-3.16-2.67c-.14-.37-.3-.77-.48-1.21-.17-.44-.35-.87-.52-1.29h-.02c-.14,.35-.32,.78-.52,1.29-.2,.51-.36,.92-.49,1.21h2.02Z"/><path class="b" d="M235.37,183.07c0,.39-.11,.73-.33,1.02-.22,.28-.52,.52-.9,.71-.33,.16-.74,.29-1.23,.37s-.98,.12-1.47,.12c-.36,0-.68,0-.96-.02-.28-.01-.47-.02-.56-.03l-.17-1.44s.22,.02,.52,.04c.3,.02,.58,.02,.82,.02,.18,0,.4-.01,.67-.04,.27-.03,.49-.07,.67-.12,.24-.07,.41-.15,.51-.26,.1-.11,.15-.24,.15-.39,0-.17-.05-.32-.16-.43-.11-.12-.29-.24-.55-.36-.16-.08-.38-.17-.65-.28s-.51-.23-.7-.34c-.37-.21-.64-.45-.8-.71s-.24-.56-.24-.88c0-.28,.06-.52,.18-.74,.12-.22,.28-.41,.48-.57,.3-.26,.71-.46,1.23-.6s1.13-.21,1.84-.21c.33,0,.62,0,.87,.01,.24,0,.39,.02,.46,.02l.19,1.44c-.09,0-.25-.01-.45-.03-.21-.02-.46-.02-.77-.02-.21,0-.42,.01-.61,.04-.2,.03-.38,.07-.56,.13-.17,.05-.3,.13-.4,.23-.1,.1-.15,.22-.15,.37,0,.13,.05,.26,.16,.37,.11,.12,.29,.24,.56,.37,.18,.08,.38,.17,.62,.27s.46,.21,.69,.33c.36,.2,.63,.44,.81,.7,.18,.27,.27,.58,.27,.92Z"/><path class="b" d="M244.23,185.17h-1.89c0-.2,0-.55,0-1.03,0-.48,0-1.13,0-1.94-.13,0-.4,0-.82,0-.42,0-.76,0-1.02,0-.29,0-.62,0-.99,0-.37,0-.61,0-.71,0,0,.75,0,1.37,0,1.86,0,.49,0,.86,.01,1.11h-1.89c0-.26,0-.65,.01-1.17,0-.52,0-1.43,0-2.73,0-.41,0-.9,0-1.48,0-.58,0-1.19-.01-1.82h1.89c0,.52,0,1,0,1.44,0,.44,0,.88,0,1.31,.11,0,.32,0,.65,0,.32,0,.68,0,1.06,0,.32,0,.68,0,1.07,0,.4,0,.65,0,.77,0,0-.41,0-.85,0-1.31,0-.46,0-.94,0-1.44h1.89c0,.6-.01,1.25-.02,1.93,0,.68,0,1.24,0,1.68,0,.91,0,1.67,0,2.29,0,.61,.01,1.05,.01,1.3Z"/><path class="b" d="M217.34,190.63c0,.62-.01,1.25-.02,1.88s0,1.12,0,1.48c0,.81,0,1.54,0,2.19s0,1.05,0,1.23l-1.37,.52c-.97-1.2-1.86-2.28-2.68-3.22-.82-.94-1.32-1.51-1.5-1.71h-.03c0,.78,0,1.71,.01,2.81,0,1.09,.01,1.77,.01,2.02h-1.76c0-.18,0-.57,.01-1.18,0-.61,0-1.37,0-2.27,0-.37,0-.84,0-1.42,0-.58,0-1.2-.02-1.86l1.48-.56c.17,.19,.67,.76,1.49,1.72,.83,.96,1.69,1.93,2.59,2.92h.02c0-.5,0-1.24-.02-2.21s-.02-1.75-.02-2.34h1.77Z"/><path class="b" d="M216.37,206.73c0,.27,0,.57-.01,.91s0,.62,0,.87c0,.34,0,.67,0,1.02,0,.34,0,.65,0,.94-.05,.01-.23,.03-.53,.04-.3,.02-.56,.03-.77,.03-.86,0-1.64-.08-2.33-.25-.69-.17-1.33-.47-1.91-.9-.39-.28-.69-.64-.93-1.06-.23-.43-.35-.91-.35-1.46,0-.6,.16-1.15,.48-1.62s.78-.88,1.37-1.2c.48-.27,1.05-.48,1.7-.62,.65-.14,1.38-.21,2.17-.21,.1,0,.19,0,.27,0,.08,0,.15,0,.23,0l.21,1.49h-.49c-.39,0-.81,.03-1.25,.09s-.84,.16-1.19,.3c-.48,.18-.86,.44-1.14,.78s-.42,.71-.42,1.11c0,.45,.11,.82,.33,1.13s.5,.54,.84,.71c.27,.13,.56,.23,.88,.3,.32,.07,.66,.11,1,.13,0-.07,0-.31,0-.73s0-1.01-.01-1.79h1.83Z"/><path class="b" d="M225.29,210.04l-1.87,.59c-.04-.12-.14-.38-.29-.78-.16-.4-.34-.85-.56-1.36h-2.91c-.22,.51-.41,.97-.57,1.37-.16,.4-.25,.66-.29,.77l-1.76-.56c.1-.21,.5-1.07,1.19-2.56s1.35-2.92,1.98-4.29h1.94c.66,1.44,1.33,2.91,2.02,4.41s1.06,2.3,1.11,2.41Zm-3.16-2.67c-.14-.37-.3-.77-.48-1.21-.17-.44-.35-.87-.52-1.29h-.02c-.14,.35-.32,.78-.52,1.29-.2,.51-.36,.92-.49,1.21h2.02Z"/><path class="b" d="M232.17,204.75c-.16,0-.46,0-.92,0s-.99,0-1.63,0c0,.56-.01,1.01-.02,1.35s0,.78,0,1.32c0,.61,0,1.2,0,1.78,0,.57,.01,1,.01,1.28h-1.89c0-.27,0-.68,.01-1.23,0-.55,0-1.16,0-1.83v-1.26c0-.35,0-.82-.01-1.41-.62,0-1.18,0-1.68,0s-.78,0-.88,0v-1.47c.3,0,.78,0,1.46,0,.68,0,1.35,0,2.02,0,.77,0,1.51,0,2.22,0,.71,0,1.14,0,1.28,0v1.47Z"/><path class="b" d="M240.45,210.47h-1.89c0-.2,0-.55,0-1.03,0-.48,0-1.13,0-1.94-.13,0-.4,0-.82,0-.42,0-.76,0-1.02,0-.29,0-.62,0-.99,0-.37,0-.61,0-.71,0,0,.75,0,1.37,0,1.86,0,.49,0,.86,.01,1.11h-1.89c0-.26,0-.65,.01-1.17,0-.52,0-1.43,0-2.73,0-.41,0-.9,0-1.48,0-.58,0-1.19-.01-1.82h1.89c0,.52,0,1,0,1.44,0,.44,0,.88,0,1.31,.11,0,.32,0,.65,0,.32,0,.68,0,1.06,0,.32,0,.68,0,1.07,0,.4,0,.65,0,.77,0,0-.41,0-.85,0-1.31,0-.46,0-.94,0-1.44h1.89c0,.6-.01,1.25-.02,1.93,0,.68,0,1.24,0,1.68,0,.91,0,1.67,0,2.29,0,.61,.01,1.05,.01,1.3Z"/><path class="b" d="M248.16,210.47c-.14,0-.52,0-1.14,0s-1.24,0-1.85,0c-.53,0-1.05,0-1.55,0-.5,0-.87,0-1.1,0,0-.19,0-.6,.01-1.24,0-.64,0-1.44,0-2.42,0-.41,0-.94,0-1.57s0-1.29-.02-1.95c.26,0,.63,0,1.11,0,.48,0,.96,0,1.44,0,.66,0,1.31,0,1.94,0,.63,0,.99,0,1.08,0v1.33c-.07,0-.31,0-.75,0-.43,0-.87,0-1.31,0-.25,0-.55,0-.89,0-.34,0-.61,0-.8,0,0,.27,0,.55,0,.85,0,.3,0,.57,0,.81,.2,0,.45,0,.76,0,.31,0,.56,0,.76,0,.49,0,.95,0,1.38,0,.43,0,.7,0,.82,0v1.07c-.08,0-.37,0-.89,0-.52,0-.95,0-1.29,0-.2,0-.45,0-.76,0-.31,0-.57,0-.78,0,0,.42,0,.78,0,1.08,0,.3,0,.54,0,.73,.23,0,.53,0,.92,0,.38,0,.73,0,1.04,0,.43,0,.83,0,1.18,0s.59,0,.69,0v1.33Z"/><path class="b" d="M256.86,209.98l-1.75,.64c-.14-.19-.42-.54-.83-1.04-.42-.5-1.05-1.27-1.89-2.31l.03-.11c.13-.02,.29-.09,.5-.18s.38-.21,.51-.33c.14-.13,.25-.27,.32-.42,.07-.15,.11-.33,.11-.56s-.06-.41-.18-.59c-.12-.17-.29-.3-.5-.38-.17-.07-.35-.11-.53-.13-.18-.02-.36-.02-.53-.02h-.34c0,.43,0,.86,0,1.31,0,.45,0,.85,0,1.2,0,.58,0,1.22,0,1.92,0,.69,0,1.19,.01,1.5h-1.89c0-.28,0-.7,.01-1.25,0-.55,0-1.36,0-2.44,0-.29,0-.7,0-1.23s0-1.29-.02-2.28c.11,0,.34,0,.69-.01,.35,0,.67-.01,.98-.01,.57,0,1.06,.02,1.48,.05,.42,.03,.81,.11,1.18,.23,.53,.16,.92,.41,1.18,.73,.26,.32,.39,.68,.39,1.08,0,.46-.14,.85-.41,1.18-.27,.33-.55,.57-.83,.74v.03c.4,.47,.82,.95,1.27,1.43,.45,.49,.8,.91,1.05,1.27Z"/></g><circle class="e" cx="293.05" cy="259.1" r="55.81"/><circle class="g" cx="337.92" cy="179.2" r="5.96"/><circle class="g" cx="357.82" cy="179.2" r="8.97"/><path class="d" d="M350.45,250.94c5.04,30.41-15.52,59.14-45.92,64.19-30.41,5.04-59.14-15.52-64.19-45.92-1.52-9.14,18.98,3.83,27.12,6.8,18.8,6.85,20.53-7.23,23.52-19.09,2.35-9.33,15.06-11.12,21.77-9.05,12.89,3.98,.06-42.3,10.94-35.89,13.75,8.1,23.94,22,26.76,38.97Z"/><circle class="h" cx="236.61" cy="286.83" r="34.58"/><rect class="f" x="229.93" y="181.34" width="7.53" height="25.9" transform="translate(427.98 -39.4) rotate(90)"/></svg>